<svg xmlns="http://www.w3.org/2000/svg" width="307.336" height="243.5" viewBox="0 0 307.336 243.5"><g transform="translate(-475 -79.5)"><line y2="119" transform="translate(629.5 177.5)" fill="none" stroke="#fff" stroke-linecap="round" stroke-width="6"/><line y2="20" transform="translate(629.5 82.5)" fill="none" stroke="#fff" stroke-linecap="round" stroke-width="6"/><g transform="translate(562 293)" fill="#fff" stroke="#fff" stroke-width="6"><path d="M15,0H119a15,15,0,0,1,15,15V27a3,3,0,0,1-3,3H3a3,3,0,0,1-3-3V15A15,15,0,0,1,15,0Z" stroke="none"/><path d="M15,3H119a12,12,0,0,1,12,12V27a0,0,0,0,1,0,0H3a0,0,0,0,1,0,0V15A12,12,0,0,1,15,3Z" fill="none"/></g><g transform="translate(475 168)" fill="none"><path d="M38.168,17.907,76.336,84.413s-19.084,20.995-38.168,20.995S0,84.413,0,84.413Z" stroke="none"/><path d="M 38.16790771484375 29.96080017089844 L 7.476249694824219 83.44032287597656 C 14.09307098388672 89.67802429199219 26.82466888427734 99.40795135498047 38.16790771484375 99.40795135498047 C 49.45880126953125 99.40795135498047 62.21675872802734 89.67219543457031 68.85536193847656 83.4329833984375 L 38.16790771484375 29.96080017089844 M 38.16790771484375 17.90657043457031 L 76.3358154296875 84.41328430175781 C 76.3358154296875 84.41328430175781 57.25186920166016 105.4079513549805 38.16790771484375 105.4079513549805 C 19.08394241333008 105.4079513549805 0 84.41328430175781 0 84.41328430175781 L 38.16790771484375 17.90657043457031 Z" stroke="none" fill="#fff"/></g><g transform="translate(706 76)" fill="none"><path d="M38.168,17.907,76.336,84.413s-19.084,20.995-38.168,20.995S0,84.413,0,84.413Z" stroke="none"/><path d="M 38.16790771484375 29.96080017089844 L 7.476249694824219 83.44032287597656 C 14.09307098388672 89.67802429199219 26.82466888427734 99.40795135498047 38.16790771484375 99.40795135498047 C 49.45880126953125 99.40795135498047 62.21675872802734 89.67219543457031 68.85536193847656 83.4329833984375 L 38.16790771484375 29.96080017089844 M 38.16790771484375 17.90657043457031 L 76.3358154296875 84.41328430175781 C 76.3358154296875 84.41328430175781 57.25186920166016 105.4079513549805 38.16790771484375 105.4079513549805 C 19.08394241333008 105.4079513549805 0 84.41328430175781 0 84.41328430175781 L 38.16790771484375 17.90657043457031 Z" stroke="none" fill="#fff"/></g><g transform="translate(590 101)" fill="none" stroke="#fff" stroke-width="6"><circle cx="39.5" cy="39.5" r="39.5" stroke="none"/><circle cx="39.5" cy="39.5" r="36.5" fill="none"/></g><line y1="38" x2="93" transform="translate(498.5 154.5)" fill="none" stroke="#fff" stroke-linecap="round" stroke-width="6"/><line y1="37" x2="90" transform="translate(664.5 89.5)" fill="none" stroke="#fff" stroke-linecap="round" stroke-width="6"/><text transform="translate(614 161)" fill="#fff" font-size="56" font-family="SegoeUI, Segoe UI"><tspan x="0" y="0">₹</tspan></text></g></svg>